<svg width="16" height="16" viewBox="0 0 16 16" fill="none" xmlns="http://www.w3.org/2000/svg">
<path d="M9.51598 9.88759L8.83562 12.2014C8.58068 13.0675 7.31825 13.0675 7.0633 12.2014L6.38371 9.88759C6.34068 9.74123 6.26001 9.60793 6.1493 9.50029C6.03859 9.39265 5.9015 9.31421 5.75096 9.27237L3.37123 8.61161C2.48047 8.36373 2.48047 7.13627 3.37123 6.88839L5.75096 6.22763C5.9015 6.18579 6.03859 6.10735 6.1493 5.99971C6.26001 5.89207 6.34068 5.75877 6.38371 5.61241L7.0633 3.29861C7.31825 2.43252 8.58068 2.43252 8.83562 3.29861L9.51521 5.61241C9.55824 5.75877 9.63892 5.89207 9.74963 5.99971C9.86034 6.10735 9.99743 6.18579 10.148 6.22763L12.5277 6.88839C13.4185 7.13627 13.4185 8.36373 12.5277 8.61161L10.148 9.27237C9.99743 9.31421 9.86034 9.39265 9.74963 9.50029C9.63892 9.60793 9.55901 9.74123 9.51598 9.88759ZM13.7625 13.511L13.4737 14.6369C13.4354 14.7877 13.215 14.7877 13.1758 14.6369L12.8863 13.511C12.8795 13.4848 12.8656 13.461 12.846 13.4419C12.8264 13.4229 12.8018 13.4093 12.775 13.4027L11.617 13.1212C11.4618 13.0839 11.4618 12.8696 11.617 12.8315L12.775 12.5501C12.8018 12.5435 12.8264 12.5299 12.846 12.5109C12.8656 12.4918 12.8795 12.4679 12.8863 12.4418L13.1758 11.3159C13.2142 11.1651 13.4346 11.1651 13.4737 11.3159L13.7632 12.4418C13.77 12.4679 13.784 12.4918 13.8036 12.5109C13.8232 12.5299 13.8477 12.5435 13.8746 12.5501L15.0326 12.8315C15.1877 12.8689 15.1877 13.0832 15.0326 13.1212L13.8746 13.4027C13.8477 13.4093 13.8232 13.4229 13.8036 13.4419C13.784 13.461 13.7693 13.4848 13.7625 13.511ZM3.01185 3.0582L2.72312 4.18411C2.68473 4.33493 2.46357 4.33493 2.42518 4.18411L2.13568 3.0582C2.1289 3.03206 2.11497 3.0082 2.09536 2.98914C2.07576 2.97008 2.05121 2.95653 2.02433 2.94994L0.866337 2.66846C0.711221 2.63113 0.711221 2.4161 0.866337 2.37877L2.02433 2.09729C2.05121 2.09069 2.07576 2.07715 2.09536 2.05809C2.11497 2.03903 2.1289 2.01516 2.13568 1.98903L2.42518 0.863114C2.46357 0.712295 2.68473 0.712295 2.72312 0.863114L3.01262 1.98903C3.0194 2.01516 3.03334 2.03903 3.05294 2.05809C3.07254 2.07715 3.09709 2.09069 3.12397 2.09729L4.28196 2.37877C4.43708 2.4161 4.43708 2.63113 4.28196 2.66846L3.12397 2.94994C3.09709 2.95653 3.07254 2.97008 3.05294 2.98914C3.03334 3.0082 3.01864 3.03206 3.01185 3.0582Z" stroke="white" stroke-width="1.5" stroke-miterlimit="10" stroke-linecap="round" stroke-linejoin="round"/>
</svg>
