<svg width="32" height="28" viewBox="0 0 32 28" fill="none" xmlns="http://www.w3.org/2000/svg">
<path d="M10.6921 26.75H15.6632M15.6632 26.75H20.6342M15.6632 26.75V21.875M15.6632 21.875H27.2623C28.1412 21.875 28.9842 21.5326 29.6057 20.9231C30.2272 20.3136 30.5763 19.487 30.5763 18.625V4C30.5763 3.13805 30.2272 2.3114 29.6057 1.7019C28.9842 1.09241 28.1412 0.75 27.2623 0.75H4.06404C3.1851 0.75 2.34216 1.09241 1.72066 1.7019C1.09916 2.3114 0.75 3.13805 0.75 4V18.625C0.75 19.487 1.09916 20.3136 1.72066 20.9231C2.34216 21.5326 3.1851 21.875 4.06404 21.875H15.6632Z" stroke="white" stroke-width="1.5" stroke-linecap="round" stroke-linejoin="round"/>
</svg>
