<svg width="20" height="28" viewBox="0 0 20 28" fill="none" xmlns="http://www.w3.org/2000/svg">
<path d="M17.4288 0H2.11258C0.947362 0 0 0.896875 0 2V26C0 27.1031 0.947362 28 2.11258 28H17.4288C18.594 28 19.5414 27.1031 19.5414 26V2C19.5414 0.896875 18.594 0 17.4288 0ZM17.1647 25.75H2.37666V2.25H17.1647V25.75ZM8.45033 22.5625C8.45033 22.894 8.58944 23.212 8.83706 23.4464C9.08468 23.6808 9.42052 23.8125 9.7707 23.8125C10.1209 23.8125 10.4567 23.6808 10.7043 23.4464C10.952 23.212 11.0911 22.894 11.0911 22.5625C11.0911 22.231 10.952 21.913 10.7043 21.6786C10.4567 21.4442 10.1209 21.3125 9.7707 21.3125C9.42052 21.3125 9.08468 21.4442 8.83706 21.6786C8.58944 21.913 8.45033 22.231 8.45033 22.5625Z" fill="white"/>
</svg>
