<svg width="27" height="33" viewBox="0 0 27 33" fill="none" xmlns="http://www.w3.org/2000/svg">
<path d="M24.3099 0H2.43099C1.09015 0 0 1.05703 0 2.35714V30.6429C0 31.943 1.09015 33 2.43099 33H24.3099C25.6507 33 26.7409 31.943 26.7409 30.6429V2.35714C26.7409 1.05703 25.6507 0 24.3099 0ZM24.006 30.3482H2.73486V2.65179H24.006V30.3482ZM11.8511 26.5179C11.8511 26.9086 12.0111 27.2833 12.2961 27.5596C12.581 27.8359 12.9675 27.9911 13.3704 27.9911C13.7734 27.9911 14.1598 27.8359 14.4448 27.5596C14.7297 27.2833 14.8898 26.9086 14.8898 26.5179C14.8898 26.1271 14.7297 25.7524 14.4448 25.4761C14.1598 25.1999 13.7734 25.0446 13.3704 25.0446C12.9675 25.0446 12.581 25.1999 12.2961 25.4761C12.0111 25.7524 11.8511 26.1271 11.8511 26.5179Z" fill="white"/>
</svg>
