<svg width="16" height="16" viewBox="0 0 16 16" fill="none" xmlns="http://www.w3.org/2000/svg">
<path d="M2.83336 1.73536C3.40529 1.40516 4.07019 1.2729 4.72495 1.35911C5.37971 1.44531 5.98772 1.74515 6.4547 2.21213C6.92167 2.67911 7.22151 3.28713 7.3077 3.94189C7.3939 4.59665 7.26163 5.26155 6.93142 5.83347C6.60121 6.4054 6.09151 6.85238 5.48137 7.1051C4.87123 7.35781 4.19475 7.40214 3.55685 7.2312C2.91895 7.06026 2.35528 6.68361 1.95326 6.15967C1.55124 5.63573 1.33335 4.99377 1.33336 4.33336L1.33736 4.1807C1.36285 3.68063 1.51309 3.1949 1.77439 2.76778C2.03569 2.34066 2.39975 1.98574 2.83336 1.73536ZM3.7547 9.0027C3.81303 8.90073 3.89727 8.81599 3.99889 8.75705C4.1005 8.69811 4.21589 8.66707 4.33336 8.66707C4.45084 8.66707 4.56622 8.69811 4.66784 8.75705C4.76946 8.81599 4.8537 8.90073 4.91203 9.0027L7.5787 13.6694C7.6366 13.7707 7.66687 13.8855 7.66648 14.0023C7.66608 14.119 7.63504 14.2336 7.57645 14.3346C7.51786 14.4356 7.43378 14.5194 7.33262 14.5777C7.23146 14.636 7.11677 14.6667 7.00003 14.6667H1.6667C1.54995 14.6667 1.43526 14.636 1.3341 14.5777C1.23295 14.5194 1.14887 14.4356 1.09028 14.3346C1.03169 14.2336 1.00064 14.119 1.00025 14.0023C0.999853 13.8855 1.03012 13.7707 1.08803 13.6694L3.7547 9.0027ZM8.86203 1.5287C8.98705 1.40372 9.15659 1.33351 9.33336 1.33351C9.51014 1.33351 9.67968 1.40372 9.8047 1.5287L14.4714 6.19536C14.535 6.25686 14.5858 6.33042 14.6208 6.41176C14.6557 6.4931 14.6741 6.58058 14.6749 6.6691C14.6756 6.75762 14.6588 6.8454 14.6252 6.92733C14.5917 7.00926 14.5422 7.0837 14.4796 7.14629C14.417 7.20889 14.3426 7.25839 14.2607 7.29191C14.1787 7.32543 14.0909 7.3423 14.0024 7.34153C13.9139 7.34076 13.8264 7.32237 13.7451 7.28743C13.6638 7.25249 13.5902 7.2017 13.5287 7.13803L8.86203 2.47136C8.73705 2.34634 8.66684 2.17681 8.66684 2.00003C8.66684 1.82325 8.73705 1.65371 8.86203 1.5287Z" fill="white"/>
<path d="M13.5287 1.52869C13.6545 1.40726 13.8229 1.34006 13.9977 1.34158C14.1725 1.3431 14.3397 1.41321 14.4633 1.53681C14.5869 1.66042 14.657 1.82763 14.6585 2.00243C14.6601 2.17722 14.5929 2.34563 14.4714 2.47136L9.80475 7.13803C9.67901 7.25947 9.51061 7.32666 9.33581 7.32514C9.16102 7.32362 8.99381 7.25351 8.8702 7.12991C8.7466 7.0063 8.67648 6.83909 8.67497 6.66429C8.67345 6.4895 8.74064 6.3211 8.86208 6.19536L13.5287 1.52869ZM14.0001 8.66669C14.1769 8.66669 14.3465 8.73693 14.4715 8.86196C14.5965 8.98698 14.6667 9.15655 14.6667 9.33336V14C14.6667 14.1768 14.5965 14.3464 14.4715 14.4714C14.3465 14.5965 14.1769 14.6667 14.0001 14.6667H9.33341C9.1566 14.6667 8.98703 14.5965 8.86201 14.4714C8.73699 14.3464 8.66675 14.1768 8.66675 14V9.33336C8.66675 9.15655 8.73699 8.98698 8.86201 8.86196C8.98703 8.73693 9.1566 8.66669 9.33341 8.66669H14.0001Z" fill="white"/>
</svg>
