<svg width="17" height="17" viewBox="0 0 17 17" fill="none" xmlns="http://www.w3.org/2000/svg">
<path d="M10.0938 7.4375C10.409 7.4375 10.7171 7.34403 10.9792 7.16891C11.2413 6.99378 11.4456 6.74487 11.5662 6.45365C11.6868 6.16243 11.7184 5.84198 11.6569 5.53283C11.5954 5.22367 11.4436 4.93969 11.2207 4.7168C10.9978 4.49391 10.7138 4.34212 10.4047 4.28062C10.0955 4.21913 9.77507 4.25069 9.48385 4.37132C9.19263 4.49194 8.94372 4.69622 8.76859 4.95831C8.59347 5.2204 8.5 5.52854 8.5 5.84375C8.5 6.26644 8.66791 6.67182 8.9668 6.9707C9.26568 7.26959 9.67106 7.4375 10.0938 7.4375ZM10.0938 5.3125C10.1988 5.3125 10.3015 5.34366 10.3889 5.40203C10.4763 5.46041 10.5444 5.54338 10.5846 5.64045C10.6248 5.73752 10.6353 5.84434 10.6148 5.94739C10.5943 6.05045 10.5437 6.1451 10.4694 6.2194C10.3951 6.2937 10.3004 6.34429 10.1974 6.36479C10.0943 6.38529 9.98752 6.37477 9.89045 6.33456C9.79338 6.29435 9.71041 6.22626 9.65203 6.1389C9.59366 6.05153 9.5625 5.94882 9.5625 5.84375C9.5625 5.70285 9.61847 5.56773 9.7181 5.4681C9.81773 5.36847 9.95285 5.3125 10.0938 5.3125Z" fill="white"/>
<path d="M13.8125 2.125H3.1875C2.90571 2.125 2.63546 2.23694 2.4362 2.4362C2.23694 2.63546 2.125 2.90571 2.125 3.1875V13.8125C2.125 14.0943 2.23694 14.3645 2.4362 14.5638C2.63546 14.7631 2.90571 14.875 3.1875 14.875H13.8125C14.0943 14.875 14.3645 14.7631 14.5638 14.5638C14.7631 14.3645 14.875 14.0943 14.875 13.8125V3.1875C14.875 2.90571 14.7631 2.63546 14.5638 2.4362C14.3645 2.23694 14.0943 2.125 13.8125 2.125ZM13.8125 13.8125H3.1875V10.625L5.84375 7.96875L8.81344 10.9384C9.01251 11.1363 9.2818 11.2474 9.5625 11.2474C9.8432 11.2474 10.1125 11.1363 10.3116 10.9384L11.1562 10.0938L13.8125 12.75V13.8125ZM13.8125 11.2466L11.9053 9.33937C11.7062 9.14148 11.4369 9.03041 11.1562 9.03041C10.8756 9.03041 10.6063 9.14148 10.4072 9.33937L9.5625 10.1841L6.59281 7.21437C6.39374 7.01648 6.12445 6.90541 5.84375 6.90541C5.56305 6.90541 5.29376 7.01648 5.09469 7.21437L3.1875 9.12156V3.1875H13.8125V11.2466Z" fill="white"/>
</svg>
