<svg width="18" height="18" viewBox="0 0 18 18" fill="none" xmlns="http://www.w3.org/2000/svg">
<g clip-path="url(#clip0_101_1102)">
<path d="M8.595 2.20727C8.17189 2.30452 7.79446 2.54283 7.52475 2.88302C7.36426 3.10289 7.24647 3.35094 7.1775 3.61427L7.137 3.79652H2.685V3.38702C2.685 2.93477 2.66625 2.85452 2.5395 2.77952C2.475 2.74127 2.358 2.73677 1.3185 2.73677H0.16725L0.084 2.82077L0 2.90477V5.24852L0.072 5.32877L0.144 5.40977L1.29675 5.41577C2.559 5.42252 2.5275 5.42552 2.628 5.27627C2.68125 5.19752 2.68425 5.16902 2.68425 4.77752V4.36277H5.65125L5.3685 4.50527C4.74375 4.82327 4.245 5.17127 3.79575 5.60627C3.34958 6.0292 2.98234 6.52825 2.71125 7.08002C2.54961 7.42449 2.41739 7.78202 2.316 8.14877C2.2905 8.25602 2.27625 8.27852 2.23125 8.27852C2.13975 8.27852 1.89375 8.35052 1.76325 8.41652C1.46553 8.56296 1.22861 8.8092 1.09375 9.11235C0.958899 9.41549 0.934657 9.75634 1.02525 10.0755C1.10934 10.3711 1.28673 10.6316 1.53097 10.8181C1.77521 11.0046 2.0732 11.1072 2.3805 11.1105C2.628 11.1105 2.7855 11.073 3.027 10.9583C3.26461 10.8411 3.46462 10.6596 3.60434 10.4346C3.74407 10.2095 3.81791 9.94971 3.8175 9.68477C3.8175 9.45452 3.73725 9.16202 3.62025 8.96477C3.49125 8.74727 3.22725 8.50502 3.01875 8.41202C2.93025 8.37227 2.8575 8.32652 2.8575 8.30927C2.8575 8.29202 2.90625 8.12852 2.967 7.94402C3.51 6.29252 4.76775 5.17652 6.822 4.52402C6.978 4.47527 7.1175 4.43027 7.1325 4.42502C7.14825 4.41977 7.188 4.50002 7.22475 4.61252C7.4295 5.23427 7.91475 5.67752 8.57025 5.84252C8.85675 5.91527 9.279 5.90027 9.56775 5.80727C10.1242 5.62727 10.5937 5.14952 10.7752 4.57952L10.827 4.41452L11.0715 4.49702C11.9539 4.7969 12.7566 5.2934 13.419 5.94902C14.2128 6.71239 14.787 7.6749 15.0817 8.73602L15.141 8.94602L15.0135 9.00302C14.4225 9.26777 14.0655 9.95102 14.196 10.5683C14.2547 10.8551 14.399 11.1175 14.6099 11.3206C14.8208 11.5237 15.0884 11.6581 15.3773 11.706C15.706 11.7527 16.0408 11.6844 16.3249 11.5126C16.6091 11.3408 16.8251 11.0761 16.9365 10.7633C16.9973 10.5848 17.0218 10.3961 17.0088 10.2081C16.9957 10.02 16.9453 9.83648 16.8604 9.66817C16.7756 9.49986 16.658 9.35017 16.5146 9.22784C16.3712 9.10552 16.2048 9.01302 16.0253 8.95577C15.9405 8.92756 15.8534 8.90698 15.765 8.89427C15.7005 8.89427 15.6945 8.88452 15.6525 8.70302C15.3975 7.62302 14.7277 6.45227 13.8787 5.60627C13.4437 5.17352 12.7777 4.67027 12.357 4.45802C12.3068 4.43555 12.2593 4.40763 12.2153 4.37477C12.2153 4.36727 12.9135 4.36277 13.767 4.36277H15.3187V5.24777L15.39 5.32877L15.462 5.40902H17.8298L17.91 5.32877L17.9902 5.24852L17.9977 4.11452C18.0052 2.86952 18.0053 2.86652 17.8568 2.77952C17.7923 2.74127 17.6752 2.73677 16.6357 2.73677H15.486L15.402 2.82077L15.318 2.90477V3.79502H10.842L10.8247 3.68327C10.779 3.37577 10.5968 3.02177 10.35 2.76002C10.0962 2.48535 9.76605 2.29286 9.402 2.20727C9.21525 2.16302 8.78475 2.16227 8.595 2.20652M8.56725 9.05402C8.52525 9.07652 8.46225 9.16652 8.391 9.30527C7.09875 11.8215 5.265 15.4388 5.2545 15.492C5.22225 15.6555 5.3895 15.8333 5.55225 15.807C5.595 15.7995 6.29475 15.492 7.10625 15.123C7.91775 14.754 8.61 14.442 8.64375 14.4285C8.69775 14.4075 8.8995 14.4945 10.1835 15.0885C10.9965 15.4643 11.7038 15.7875 11.7563 15.8063C11.8725 15.8475 11.9813 15.8198 12.0698 15.7253C12.2055 15.5805 12.2692 15.723 10.5443 12.2918C9.4215 10.059 8.94375 9.13277 8.8905 9.08402C8.84608 9.04672 8.79133 9.02386 8.73356 9.0185C8.6758 9.01314 8.61778 9.02553 8.56725 9.05402Z" fill="white"/>
</g>
<defs>
<clipPath id="clip0_101_1102">
<rect width="18" height="18" fill="white"/>
</clipPath>
</defs>
</svg>
