<svg width="21" height="21" viewBox="0 0 21 21" fill="none" xmlns="http://www.w3.org/2000/svg">
<path d="M10.5 7.5V13.556M13.5 10.5H7.5M16.5 14.5V6.5C16.5 5.96957 16.2893 5.46086 15.9142 5.08579C15.5391 4.71071 15.0304 4.5 14.5 4.5H6.5C5.96957 4.5 5.46086 4.71071 5.08579 5.08579C4.71071 5.46086 4.5 5.96957 4.5 6.5V14.5C4.5 15.0304 4.71071 15.5391 5.08579 15.9142C5.46086 16.2893 5.96957 16.5 6.5 16.5H14.5C15.0304 16.5 15.5391 16.2893 15.9142 15.9142C16.2893 15.5391 16.5 15.0304 16.5 14.5Z" stroke="white" stroke-linecap="round" stroke-linejoin="round"/>
</svg>
