<svg width="16" height="16" viewBox="0 0 16 16" fill="none" xmlns="http://www.w3.org/2000/svg">
<path d="M13.6963 14.1097C13.9069 14.2517 14.1857 14.1948 14.3506 13.9617C15.3914 12.4714 16 10.5546 16 8.52398C16 6.49341 15.3857 4.57141 14.3506 3.08084C14.1857 2.8477 13.9069 2.79084 13.6963 2.93856C13.4803 3.08656 13.446 3.37084 13.6111 3.60998C14.5269 4.9577 15.0957 6.68713 15.0957 8.52427C15.0957 10.3614 14.544 12.1131 13.6111 13.4386C13.446 13.6717 13.4803 13.956 13.6963 14.1097ZM6.49 13.7171C6.87657 13.7171 7.15543 13.4328 7.15543 13.0514V3.9797C7.15543 3.59856 6.87657 3.28027 6.47829 3.28027C6.19971 3.28027 6.01771 3.41656 5.71057 3.6897L3.03743 6.06141C2.99856 6.09653 2.94748 6.11499 2.89514 6.11284H1.20571C0.398286 6.11284 0 6.51656 0 7.3757V9.63913C0 10.498 0.398286 10.902 1.20571 10.902H2.89514C2.952 10.902 3.00314 10.9191 3.03743 10.9531L5.71057 13.3477C5.98943 13.598 6.21114 13.7174 6.49 13.7174M11.4043 12.5571C11.626 12.7048 11.8991 12.648 12.0583 12.4206C12.8091 11.374 13.2469 9.98056 13.2469 8.52427C13.2469 7.06256 12.8149 5.66913 12.0583 4.62256C11.8934 4.40056 11.626 4.3437 11.404 4.4917C11.188 4.6397 11.154 4.91827 11.3246 5.16313C11.9446 6.07284 12.3314 7.26741 12.3314 8.52427C12.3314 9.78141 11.956 10.9871 11.3246 11.886C11.1597 12.1306 11.188 12.4091 11.4043 12.5571ZM6.16 12.5171C6.13143 12.5171 6.09714 12.5 6.06314 12.466L3.54343 10.1966C3.40714 10.0714 3.29343 10.0431 3.13971 10.0431H1.24543C1.02371 10.0431 0.915714 9.94056 0.915714 9.71313V7.3017C0.915714 7.0797 1.02371 6.9717 1.24571 6.9717H3.13971C3.29314 6.9717 3.40143 6.94884 3.54343 6.81799L6.06343 4.53141C6.09171 4.50856 6.12571 4.48598 6.16 4.48598C6.21114 4.48598 6.23971 4.52027 6.23971 4.5657V12.4314C6.23971 12.4828 6.21114 12.5166 6.15971 12.5166M9.13457 11.0208C9.32771 11.1574 9.60657 11.1117 9.77172 10.89C10.2151 10.2928 10.4823 9.41684 10.4823 8.5237C10.4823 7.63084 10.2094 6.76084 9.77143 6.15198C9.60657 5.93027 9.33343 5.88456 9.13429 6.02113C8.88429 6.18598 8.85571 6.47627 9.03771 6.72656C9.36771 7.16998 9.56657 7.84684 9.56657 8.5237C9.56657 9.20056 9.35629 9.87741 9.03229 10.3268C8.86143 10.5714 8.88971 10.8503 9.13429 11.0208" fill="white"/>
</svg>
