<svg width="13" height="10" viewBox="0 0 13 10" fill="none" xmlns="http://www.w3.org/2000/svg">
<path d="M10.55 0.75H1.95C1.63174 0.75 1.32652 0.876428 1.10147 1.10147C0.876428 1.32652 0.75 1.63174 0.75 1.95V7.55C0.75 7.86826 0.876428 8.17348 1.10147 8.39853C1.32652 8.62357 1.63174 8.75 1.95 8.75H10.55C10.8683 8.75 11.1735 8.62357 11.3985 8.39853C11.6236 8.17348 11.75 7.86826 11.75 7.55V1.95C11.75 1.63174 11.6236 1.32652 11.3985 1.10147C11.1735 0.876428 10.8683 0.75 10.55 0.75Z" fill="black" fill-opacity="0.16"/>
<path d="M0.75 3.75H11.75M1.95 0.75H10.55C10.8683 0.75 11.1735 0.876428 11.3985 1.10147C11.6236 1.32652 11.75 1.63174 11.75 1.95V7.55C11.75 7.86826 11.6236 8.17348 11.3985 8.39853C11.1735 8.62357 10.8683 8.75 10.55 8.75H1.95C1.63174 8.75 1.32652 8.62357 1.10147 8.39853C0.876428 8.17348 0.75 7.86826 0.75 7.55V1.95C0.75 1.63174 0.876428 1.32652 1.10147 1.10147C1.32652 0.876428 1.63174 0.75 1.95 0.75Z" stroke="white" stroke-width="1.5" stroke-miterlimit="10" stroke-linecap="round" stroke-linejoin="round"/>
</svg>
