<svg width="16" height="16" viewBox="0 0 16 16" fill="none" xmlns="http://www.w3.org/2000/svg">
<path d="M6 11C5.73478 11 5.48043 11.1054 5.29289 11.2929C5.10536 11.4804 5 11.7348 5 12C5 12.2652 5.10536 12.5196 5.29289 12.7071C5.48043 12.8946 5.73478 13 6 13H10C10.2652 13 10.5196 12.8946 10.7071 12.7071C10.8946 12.5196 11 12.2652 11 12C11 11.7348 10.8946 11.4804 10.7071 11.2929C10.5196 11.1054 10.2652 11 10 11H6ZM4.75 1C4.28587 1 3.84075 1.18437 3.51256 1.51256C3.18437 1.84075 3 2.28587 3 2.75V13.25C3 14.216 3.784 15 4.75 15H11.25C11.7141 15 12.1592 14.8156 12.4874 14.4874C12.8156 14.1592 13 13.7141 13 13.25V2.75C13 2.28587 12.8156 1.84075 12.4874 1.51256C12.1592 1.18437 11.7141 1 11.25 1H4.75ZM4 2.75C4 2.55109 4.07902 2.36032 4.21967 2.21967C4.36032 2.07902 4.55109 2 4.75 2H11.25C11.4489 2 11.6397 2.07902 11.7803 2.21967C11.921 2.36032 12 2.55109 12 2.75V13.25C12 13.4489 11.921 13.6397 11.7803 13.7803C11.6397 13.921 11.4489 14 11.25 14H4.75C4.55109 14 4.36032 13.921 4.21967 13.7803C4.07902 13.6397 4 13.4489 4 13.25V2.75Z" fill="white"/>
</svg>
