<svg width="15" height="15" viewBox="0 0 15 15" fill="none" xmlns="http://www.w3.org/2000/svg">
<path d="M12.5 3.88371e-09C13.1377 -3.55181e-05 13.7513 0.243604 14.2152 0.68107C14.6792 1.11854 14.9584 1.71676 14.9958 2.35333L15 2.5V12.5C15 13.1377 14.7564 13.7513 14.3189 14.2152C13.8815 14.6792 13.2832 14.9584 12.6467 14.9958L12.5 15H2.5C1.86232 15 1.24874 14.7564 0.784783 14.3189C0.320828 13.8815 0.0415771 13.2832 0.00416677 12.6467L3.88371e-09 12.5V2.5C-3.55181e-05 1.86232 0.243604 1.24874 0.68107 0.784783C1.11854 0.320828 1.71676 0.0415771 2.35333 0.00416677L2.5 3.88371e-09H12.5ZM13.3333 5H1.66667V12.5C1.66669 12.7041 1.74163 12.9011 1.87726 13.0536C2.0129 13.2062 2.19979 13.3036 2.4025 13.3275L2.5 13.3333H12.5C12.7041 13.3333 12.9011 13.2584 13.0536 13.1227C13.2062 12.9871 13.3036 12.8002 13.3275 12.5975L13.3333 12.5V5ZM8.01083 7.675L8.08917 7.74417L9.75583 9.41083C9.90529 9.5608 9.99206 9.76203 9.99852 9.97365C10.005 10.1853 9.93065 10.3914 9.79063 10.5502C9.6506 10.709 9.45537 10.8086 9.24461 10.8287C9.03384 10.8487 8.82333 10.7878 8.65583 10.6583L8.5775 10.5892L7.5 9.5125L6.4225 10.5892C6.27901 10.7326 6.08809 10.8188 5.88557 10.8316C5.68305 10.8443 5.48284 10.7827 5.3225 10.6583L5.24417 10.5892C5.10069 10.4457 5.01449 10.2548 5.00176 10.0522C4.98903 9.84971 5.05062 9.6495 5.175 9.48917L5.24417 9.41083L6.91083 7.74417C7.05433 7.60069 7.24524 7.51449 7.44777 7.50176C7.65029 7.48903 7.8505 7.55062 8.01083 7.675Z" fill="white"/>
</svg>
