<svg width="19" height="15" viewBox="0 0 19 15" fill="none" xmlns="http://www.w3.org/2000/svg">
<path d="M17.9894 14H18M1 14H1.01062M5.24734 14H5.25796M9.49469 14H9.50531M13.742 14H13.7527M17.9894 1H18M1 1H1.01062M5.24734 1H5.25796M9.49469 1H9.50531M13.742 1V1.00813M1 5.0625C1 4.84701 1.11187 4.64035 1.311 4.48798C1.51014 4.3356 1.78022 4.25 2.06184 4.25H16.9275C17.2092 4.25 17.4792 4.3356 17.6784 4.48798C17.8775 4.64035 17.9894 4.84701 17.9894 5.0625V9.9375C17.9894 10.153 17.8775 10.3597 17.6784 10.512C17.4792 10.6644 17.2092 10.75 16.9275 10.75H2.06184C1.78022 10.75 1.51014 10.6644 1.311 10.512C1.11187 10.3597 1 10.153 1 9.9375V5.0625Z" stroke="white" stroke-width="2" stroke-linecap="round" stroke-linejoin="round"/>
</svg>
