<svg width="17" height="16" viewBox="0 0 17 16" fill="none" xmlns="http://www.w3.org/2000/svg">
<path d="M9.5579 13.9619H2.21798C1.82865 13.9619 1.45526 13.8072 1.17996 13.5319C0.904662 13.2566 0.75 12.8832 0.75 12.4939V2.21798C0.75 1.82865 0.904662 1.45526 1.17996 1.17996C1.45526 0.904662 1.82865 0.75 2.21798 0.75H13.9619C14.3512 0.75 14.7246 0.904662 14.9999 1.17996C15.2752 1.45526 15.4298 1.82865 15.4298 2.21798V9.5579" stroke="white" stroke-width="1.5" stroke-linecap="round"/>
<path d="M0.75 3.68594H15.4298M2.95198 2.2253L2.95932 2.21722M5.15395 2.2253L5.16129 2.21722M7.35593 2.2253L7.36327 2.21722" stroke="white" stroke-width="1.5" stroke-linecap="round" stroke-linejoin="round"/>
<path d="M15.4901 12.0276C15.8527 12.2507 15.8307 12.7932 15.457 12.835L13.5736 13.0493L12.7281 14.7463C12.5607 15.0825 12.0433 14.9181 11.9574 14.5012L11.0362 10.0121C10.9643 9.65975 11.2806 9.43808 11.5867 9.62672L15.4901 12.0276Z" stroke="white" stroke-width="1.5"/>
</svg>
