<svg width="17" height="17" viewBox="0 0 17 17" fill="none" xmlns="http://www.w3.org/2000/svg">
<path d="M13.8437 11.6138C13.632 11.4388 13.3535 11.3448 13.0775 11.1985C13.2895 10.0977 12.869 9.20657 12.0287 8.45925C11.6116 8.08797 11.2347 7.67079 10.8498 7.26466C10.4996 6.89474 10.1633 6.51156 9.77063 6.07874L8.58301 7.37652C8.65407 7.43058 8.7508 7.48787 8.82747 7.56505C9.60879 8.35062 10.3859 9.14095 11.1667 9.9272C11.4562 10.2187 11.5643 10.565 11.4291 10.9492C11.2955 11.329 11.006 11.5986 10.5977 11.5866C10.3039 11.5781 10.0142 11.4291 9.71997 11.3421L8.61939 12.425C9.35787 13.1888 10.2609 13.3811 11.2933 13.1516C11.4385 13.8107 11.8883 14.161 12.4502 14.4041H13.241C13.2961 14.3756 13.3495 14.3424 13.4068 14.319C14.5563 13.8494 14.7979 12.4032 13.8437 11.6138Z" fill="white"/>
<path d="M9.58796 8.71574C9.53849 8.78561 9.48171 8.89696 9.39722 8.98077C8.61012 9.76141 7.82115 10.5402 7.02691 11.3135C6.63217 11.6979 6.13271 11.7117 5.72624 11.3662C5.33405 11.0327 5.27302 10.5013 5.57851 10.0654C5.62662 9.99686 5.68051 9.93226 5.70516 9.9003L4.56123 8.74549C3.83754 9.43382 3.62453 10.2935 3.80337 11.2843C3.07815 11.4901 2.71248 11.9967 2.56543 12.6907V13.0201C2.72489 13.7149 3.13612 14.1816 3.81748 14.4041H4.54236C4.99405 14.2154 5.4216 13.9834 5.59704 13.4926C5.68527 13.2459 5.80019 13.1883 6.05094 13.2214C6.85997 13.3285 7.57805 13.0912 8.15384 12.5195C9.03325 11.646 9.88597 10.7455 10.799 9.80629L9.58796 8.71574ZM6.11078 7.30321L7.22207 8.38407C7.70946 7.89294 8.18597 7.40793 8.66826 6.9287C9.05722 6.54229 9.44533 6.15469 9.84789 5.78256C10.1976 5.45939 10.6182 5.41774 10.9973 5.63806C11.3585 5.84801 11.561 6.26655 11.4523 6.67574C11.3983 6.87923 11.2621 7.06096 11.1679 7.2432L12.2984 8.37693C13.04 7.6597 13.2557 6.77944 13.0483 5.78205C14.072 5.34107 14.4986 4.79707 14.4177 4.04737C14.34 3.3281 13.8269 2.70403 13.162 2.6294C12.8292 2.592 12.4586 2.64623 12.1424 2.76132C11.6222 2.9507 11.3823 3.41939 11.2477 3.93381C11.1516 3.92616 11.0853 3.9282 11.0224 3.91477C10.243 3.75004 9.49633 3.89199 8.93006 4.4229C7.95647 5.33614 7.05717 6.32809 6.11078 7.30321Z" fill="white"/>
<path d="M3.83612 5.74587C3.55477 6.91224 3.93523 7.83058 4.77996 8.60238C5.18473 8.9723 5.56281 9.37197 5.94616 9.76467C6.32764 10.1555 6.70062 10.5545 7.07717 10.9496L8.25323 9.78694C8.16381 9.69276 8.08323 9.60589 8.0001 9.52123C7.22354 8.7309 6.44222 7.94465 5.6711 7.14888C5.29948 6.76536 5.28979 6.22391 5.6252 5.84073C5.97455 5.44174 6.51532 5.39312 6.95307 5.72088C7.01087 5.76423 7.07037 5.8052 7.06068 5.79823L8.2143 4.64138C7.55861 3.99028 6.73768 3.73698 5.78993 3.91038C5.32617 2.87627 4.86275 2.53627 4.01989 2.60461C3.37933 2.65646 2.78331 3.126 2.65683 3.7584C2.45929 4.74848 2.90656 5.40043 3.83612 5.74587Z" fill="white"/>
</svg>
