<svg width="13" height="13" viewBox="0 0 13 13" fill="none" xmlns="http://www.w3.org/2000/svg">
<path d="M1.625 0H11.375C11.8219 0 12.2038 0.1625 12.5206 0.479375C12.8375 0.79625 13 1.17812 13 1.625V7.3125C13 7.75938 12.8375 8.14125 12.5206 8.45813C12.2038 8.775 11.8219 8.9375 11.375 8.9375H10.5625L6.5 13V8.9375H1.625C1.17812 8.9375 0.79625 8.775 0.479375 8.45813C0.1625 8.14125 0 7.75938 0 7.3125V1.625C0 1.17812 0.1625 0.79625 0.479375 0.479375C0.79625 0.1625 1.17812 0 1.625 0ZM10.5625 1.625H1.625V2.4375H10.5625V1.625ZM11.375 4.0625H1.625V4.875H11.375V4.0625ZM8.9375 6.5H1.625V7.3125H8.9375V6.5Z" fill="white"/>
</svg>
