<svg width="16" height="16" viewBox="0 0 16 16" fill="none" xmlns="http://www.w3.org/2000/svg">
<path d="M1.50197 2.5C1.50197 2.10218 1.66001 1.72064 1.94131 1.43934C2.22262 1.15804 2.60415 1 3.00197 1H13.002C13.3998 1 13.7813 1.15804 14.0626 1.43934C14.3439 1.72064 14.502 2.10218 14.502 2.5V6.063C14.9317 6.1735 15.3125 6.42378 15.5845 6.77445C15.8564 7.12512 16.0039 7.55626 16.0039 8C16.0039 8.44374 15.8564 8.87488 15.5845 9.22555C15.3125 9.57622 14.9317 9.8265 14.502 9.937V13.5C14.502 13.8978 14.3439 14.2794 14.0626 14.5607C13.7813 14.842 13.3998 15 13.002 15H3.00197C2.60415 15 2.22262 14.842 1.94131 14.5607C1.66001 14.2794 1.50197 13.8978 1.50197 13.5V9.937C1.07221 9.8265 0.691398 9.57622 0.419485 9.22555C0.147572 8.87488 0 8.44374 0 8C0 7.55626 0.147572 7.12512 0.419485 6.77445C0.691398 6.42378 1.07221 6.1735 1.50197 6.063V2.5ZM2.50197 6.063C2.93174 6.1735 3.31255 6.42378 3.58446 6.77445C3.85637 7.12512 4.00395 7.55626 4.00395 8C4.00395 8.44374 3.85637 8.87488 3.58446 9.22555C3.31255 9.57622 2.93174 9.8265 2.50197 9.937V13.5C2.50197 13.6326 2.55465 13.7598 2.64842 13.8536C2.74219 13.9473 2.86936 14 3.00197 14H13.002C13.1346 14 13.2618 13.9473 13.3555 13.8536C13.4493 13.7598 13.502 13.6326 13.502 13.5V9.937C13.0722 9.8265 12.6914 9.57622 12.4195 9.22555C12.1476 8.87488 12 8.44374 12 8C12 7.55626 12.1476 7.12512 12.4195 6.77445C12.6914 6.42378 13.0722 6.1735 13.502 6.063V2.5C13.502 2.36739 13.4493 2.24021 13.3555 2.14645C13.2618 2.05268 13.1346 2 13.002 2H3.00197C2.86936 2 2.74219 2.05268 2.64842 2.14645C2.55465 2.24021 2.50197 2.36739 2.50197 2.5V6.063ZM2.00197 7C1.73676 7 1.4824 7.10536 1.29487 7.29289C1.10733 7.48043 1.00197 7.73478 1.00197 8C1.00197 8.26522 1.10733 8.51957 1.29487 8.70711C1.4824 8.89464 1.73676 9 2.00197 9C2.26719 9 2.52154 8.89464 2.70908 8.70711C2.89662 8.51957 3.00197 8.26522 3.00197 8C3.00197 7.73478 2.89662 7.48043 2.70908 7.29289C2.52154 7.10536 2.26719 7 2.00197 7ZM14.002 7C13.7368 7 13.4824 7.10536 13.2949 7.29289C13.1073 7.48043 13.002 7.73478 13.002 8C13.002 8.26522 13.1073 8.51957 13.2949 8.70711C13.4824 8.89464 13.7368 9 14.002 9C14.2672 9 14.5215 8.89464 14.7091 8.70711C14.8966 8.51957 15.002 8.26522 15.002 8C15.002 7.73478 14.8966 7.48043 14.7091 7.29289C14.5215 7.10536 14.2672 7 14.002 7Z" fill="white"/>
<path d="M11.436 4H4.56795L4.50195 5.994H4.88795C5.09795 4.742 5.49995 4.548 7.06095 4.499L7.40395 4.488V10.831C7.40395 11.368 7.28795 11.496 6.35495 11.579V12H9.64895V11.579C8.71095 11.496 8.59495 11.369 8.59495 10.831V4.488L8.94295 4.498C10.503 4.548 10.906 4.742 11.116 5.994H11.502L11.436 4Z" fill="white"/>
</svg>
