<svg width="16" height="16" viewBox="0 0 16 16" fill="none" xmlns="http://www.w3.org/2000/svg">
<path d="M15.715 8.38624L12.25 6.79124V2.22124C12.2484 2.12536 12.2193 2.03196 12.1661 1.95218C12.1129 1.87239 12.0379 1.80958 11.95 1.77124L8.2 0.0462379C8.13418 0.0157774 8.06253 0 7.99 0C7.91748 0 7.84582 0.0157774 7.78 0.0462379L4.03 1.77124C3.94321 1.8114 3.86976 1.87562 3.81836 1.95626C3.76696 2.03691 3.73976 2.1306 3.74 2.22624V6.79624L0.290002 8.38624C0.203212 8.4264 0.129761 8.49062 0.0783602 8.57126C0.0269594 8.65191 -0.000235112 8.7456 1.53137e-06 8.84124V13.7312C-0.000235112 13.8269 0.0269594 13.9206 0.0783602 14.0012C0.129761 14.0819 0.203212 14.1461 0.290002 14.1862L4.04 15.9112C4.10582 15.9417 4.17748 15.9575 4.25 15.9575C4.32253 15.9575 4.39418 15.9417 4.46 15.9112L8 14.2812L11.54 15.9112C11.6058 15.9417 11.6775 15.9575 11.75 15.9575C11.8225 15.9575 11.8942 15.9417 11.96 15.9112L15.71 14.1862C15.7968 14.1461 15.8702 14.0819 15.9216 14.0012C15.973 13.9206 16.0002 13.8269 16 13.7312V8.84124C16.0007 8.74615 15.9742 8.65283 15.9238 8.57224C15.8733 8.49165 15.8009 8.42713 15.715 8.38624ZM14.31 8.84124L11.755 10.0062L9.2 8.84124L11.755 7.66624L14.31 8.84124ZM8 1.04624L10.555 2.22124L8 3.39624L5.45 2.22124L8 1.04624ZM4.25 7.66124L6.805 8.83624L4.25 10.0062L1.695 8.84124L4.25 7.66124ZM7.5 13.4062L4.25 14.9062L1 13.4062V9.62124L4.04 11.0062C4.10446 11.0352 4.17433 11.0502 4.245 11.0502C4.31567 11.0502 4.38554 11.0352 4.45 11.0062L7.49 9.60624L7.5 13.4062ZM4.75 6.79124V3.00624L7.79 4.40624C7.85582 4.4367 7.92748 4.45248 8 4.45248C8.07253 4.45248 8.14418 4.4367 8.21 4.40624L11.25 3.00624V6.79624L8 8.29624L4.75 6.79124ZM15.005 13.4112L11.755 14.9112L8.5 13.4112V9.61624L11.545 11.0062C11.6088 11.0345 11.6778 11.0491 11.7475 11.0491C11.8173 11.0491 11.8862 11.0345 11.95 11.0062L14.99 9.60624L15.005 13.4112Z" fill="white"/>
</svg>
