<svg width="16" height="11" viewBox="0 0 16 11" fill="none" xmlns="http://www.w3.org/2000/svg">
<path d="M3 3.5C3.55228 3.5 4 3.05228 4 2.5C4 1.94772 3.55228 1.5 3 1.5C2.44772 1.5 2 1.94772 2 2.5C2 3.05228 2.44772 3.5 3 3.5Z" fill="white"/>
<path d="M3 6.5C3.55228 6.5 4 6.05228 4 5.5C4 4.94772 3.55228 4.5 3 4.5C2.44772 4.5 2 4.94772 2 5.5C2 6.05228 2.44772 6.5 3 6.5Z" fill="white"/>
<path d="M3 9.5C3.55228 9.5 4 9.05228 4 8.5C4 7.94772 3.55228 7.5 3 7.5C2.44772 7.5 2 7.94772 2 8.5C2 9.05228 2.44772 9.5 3 9.5Z" fill="white"/>
<path d="M13.5 3H6.5C6.22 3 6 2.78 6 2.5C6 2.22 6.22 2 6.5 2H13.5C13.78 2 14 2.22 14 2.5C14 2.78 13.78 3 13.5 3ZM13.5 6H6.5C6.22 6 6 5.78 6 5.5C6 5.22 6.22 5 6.5 5H13.5C13.78 5 14 5.22 14 5.5C14 5.78 13.78 6 13.5 6ZM13.5 9H6.5C6.22 9 6 8.78 6 8.5C6 8.22 6.22 8 6.5 8H13.5C13.78 8 14 8.22 14 8.5C14 8.78 13.78 9 13.5 9Z" fill="white"/>
</svg>
