<svg width="16" height="16" viewBox="0 0 16 16" fill="none" xmlns="http://www.w3.org/2000/svg">
<path d="M3.4614 3.46135L2.75203 2.75198C2.74906 2.7551 2.746 2.75779 2.74303 2.76076C1.3491 4.15461 0.564175 6.04394 0.560075 8.01519C0.555975 9.98645 1.33303 11.879 2.72115 13.2787L3.43053 12.5693C2.22717 11.3572 1.55443 9.7168 1.56022 8.0088C1.56601 6.30081 2.24986 4.66503 3.4614 3.4611V3.46135ZM13.2835 2.76088C13.271 2.74838 13.2579 2.7361 13.2452 2.72357L12.5359 3.43295C13.1431 4.02875 13.6263 4.73893 13.9576 5.52249C14.2889 6.30605 14.4618 7.14747 14.4661 7.99818C14.4705 8.84889 14.3063 9.69204 13.983 10.479C13.6598 11.2659 13.1839 11.981 12.5827 12.5829L13.2921 13.2923C14.686 11.8938 15.468 9.99938 15.4663 8.02488C15.4647 6.05038 14.6795 4.15723 13.2833 2.76107L13.2835 2.76088Z" fill="white"/>
<path d="M4.79753 4.79757C3.94091 5.6474 3.45653 6.80242 3.45074 8.00905C3.44494 9.21568 3.9182 10.3753 4.76662 11.2333L5.4734 10.5265C4.81273 9.85582 4.44498 8.9505 4.45078 8.00906C4.45657 7.06762 4.83543 6.16689 5.50431 5.50435L4.79753 4.79757ZM10.4928 5.47585C10.8314 5.80358 11.1014 6.19532 11.2873 6.62831C11.4731 7.0613 11.5711 7.52691 11.5754 7.99808C11.5798 8.46925 11.4905 8.93659 11.3127 9.37295C11.1349 9.8093 10.8721 10.206 10.5397 10.5399L11.2468 11.2469C11.6722 10.8202 12.0087 10.3134 12.2368 9.75574C12.4649 9.1981 12.5802 8.60075 12.5758 7.99827C12.5714 7.39579 12.4476 6.80016 12.2114 6.24589C11.9752 5.69161 11.6314 5.1897 11.1999 4.76923L10.4928 5.47585ZM9.21137 6.75732C8.91828 6.48235 8.53936 6.31683 8.13846 6.28863C7.73757 6.26043 7.33921 6.37129 7.01051 6.60252C6.68182 6.83376 6.44288 7.17123 6.33396 7.55807C6.22504 7.94491 6.25279 8.35748 6.41255 8.72624C6.57231 9.095 6.85431 9.39743 7.21102 9.58254C7.56773 9.76766 7.97735 9.82416 8.37085 9.74251C8.76435 9.66086 9.11768 9.44607 9.3713 9.13432C9.62492 8.82257 9.76332 8.43292 9.76318 8.03104C9.76335 7.79226 9.71446 7.55599 9.61953 7.33688C9.52461 7.11778 9.38568 6.92051 9.21137 6.75732ZM8.01318 8.78104C7.86485 8.78104 7.71984 8.73705 7.59651 8.65464C7.47317 8.57223 7.37704 8.4551 7.32027 8.31805C7.26351 8.18101 7.24865 8.03021 7.27759 7.88472C7.30653 7.73924 7.37796 7.6056 7.48285 7.50071C7.58774 7.39582 7.72138 7.32439 7.86687 7.29545C8.01235 7.26651 8.16315 7.28136 8.3002 7.33813C8.43724 7.39489 8.55437 7.49102 8.63679 7.61436C8.7192 7.7377 8.76318 7.8827 8.76318 8.03104C8.76318 8.22995 8.68417 8.42072 8.54351 8.56137C8.40286 8.70202 8.2121 8.78104 8.01318 8.78104Z" fill="white"/>
</svg>
