<svg width="21" height="14" viewBox="0 0 21 14" fill="none" xmlns="http://www.w3.org/2000/svg">
<path d="M3.41675 11.9166C6.25008 3.41663 9.08341 14.75 11.9167 6.24996C13.8056 0.583293 15.6945 12.8611 17.5834 3.41663" stroke="white" stroke-width="1.5" stroke-linecap="round"/>
<path d="M2.5 14C3.88071 14 5 12.8807 5 11.5C5 10.1193 3.88071 9 2.5 9C1.11929 9 0 10.1193 0 11.5C0 12.8807 1.11929 14 2.5 14Z" fill="white"/>
<path d="M18.5 5C19.8807 5 21 3.88071 21 2.5C21 1.11929 19.8807 0 18.5 0C17.1193 0 16 1.11929 16 2.5C16 3.88071 17.1193 5 18.5 5Z" fill="white"/>
</svg>
