<svg width="28" height="25" viewBox="0 0 28 25" fill="none" xmlns="http://www.w3.org/2000/svg">
<path d="M9.22447 25C6.68037 25 4.50629 24.1256 2.70222 22.3769C0.898151 20.6282 -0.00258647 18.5071 5.57831e-06 16.0135C0.00259763 13.5199 0.903335 11.4045 2.70222 9.66731C4.50758 7.93141 6.68232 7.06346 9.22642 7.06346H24.2791L18.5131 1.36154L19.8895 0L28 8.025L19.8875 16.05L18.5111 14.6904L24.2772 8.98654H9.22447C7.20785 8.98654 5.49062 9.66474 4.07277 11.0212C2.65232 12.3776 1.9421 14.0417 1.9421 16.0135C1.9421 17.9853 2.65167 19.6558 4.07082 21.025C5.49127 22.3929 7.20915 23.0769 9.22447 23.0769H23.3265V25H9.22447Z" fill="white"/>
</svg>
