<svg width="11" height="13" viewBox="0 0 11 13" fill="none" xmlns="http://www.w3.org/2000/svg">
<path d="M9.04839 13H1.95161C1.43401 13 0.937612 12.7848 0.571614 12.4017C0.205616 12.0186 0 11.4989 0 10.9571V2.04286C0 1.50106 0.205616 0.981449 0.571614 0.598339C0.937612 0.215229 1.43401 0 1.95161 0H7.27419C7.41531 0.000130039 7.5506 0.0589142 7.65032 0.163429L10.8439 3.52857C10.9437 3.63296 10.9999 3.77457 11 3.92229V10.9571C11 11.4989 10.7944 12.0186 10.4284 12.4017C10.0624 12.7848 9.56599 13 9.04839 13ZM1.95161 1.11429C1.71634 1.11429 1.4907 1.21212 1.32434 1.38626C1.15798 1.5604 1.06452 1.79658 1.06452 2.04286V10.9571C1.06452 11.2034 1.15798 11.4396 1.32434 11.6137C1.4907 11.7879 1.71634 11.8857 1.95161 11.8857H9.04839C9.28366 11.8857 9.5093 11.7879 9.67566 11.6137C9.84202 11.4396 9.93548 11.2034 9.93548 10.9571V4.13029L7.05419 1.11429H1.95161Z" fill="white"/>
<path d="M9 12H7.89474V7.70312H3.10529V12H2.00003V7.53125C2.00003 7.30333 2.09707 7.08474 2.2698 6.92358C2.44253 6.76242 2.6768 6.67188 2.92108 6.67188H8.07895C8.32323 6.67188 8.5575 6.76242 8.73023 6.92358C8.90296 7.08474 9 7.30333 9 7.53125V12ZM5.84633 4.26562H2.94318C2.81836 4.26473 2.69494 4.24089 2.57999 4.19549C2.46504 4.15009 2.36079 4.084 2.27321 4.00101C2.18563 3.91802 2.11643 3.81974 2.06956 3.71179C2.02268 3.60385 1.99906 3.48834 2.00003 3.37187V1H3.10529V3.23438H5.68422V1H6.78948V3.37187C6.79045 3.48834 6.76683 3.60385 6.71996 3.71179C6.67308 3.81974 6.60388 3.91802 6.5163 4.00101C6.42872 4.084 6.32448 4.15009 6.20952 4.19549C6.09457 4.24089 5.97115 4.26473 5.84633 4.26562Z" fill="white"/>
</svg>
