<svg width="17" height="16" viewBox="0 0 17 16" fill="none" xmlns="http://www.w3.org/2000/svg">
<path d="M14.599 1H1.79994C1.35815 1 1 1.34822 1 1.77778V5.66667C1 6.09622 1.35815 6.44444 1.79994 6.44444H14.599C15.0408 6.44444 15.3989 6.09622 15.3989 5.66667V1.77778C15.3989 1.34822 15.0408 1 14.599 1Z" stroke="white" stroke-width="2" stroke-linecap="round" stroke-linejoin="round"/>
<path d="M7.39952 9.55556H1.79994C1.35815 9.55556 1 9.90378 1 10.3333V14.2222C1 14.6518 1.35815 15 1.79994 15H7.39952C7.84132 15 8.19946 14.6518 8.19946 14.2222V10.3333C8.19946 9.90378 7.84132 9.55556 7.39952 9.55556Z" stroke="white" stroke-width="2" stroke-linecap="round" stroke-linejoin="round"/>
<path d="M14.5992 9.55556H12.1994C11.7576 9.55556 11.3994 9.90378 11.3994 10.3333V14.2222C11.3994 14.6518 11.7576 15 12.1994 15H14.5992C15.041 15 15.3991 14.6518 15.3991 14.2222V10.3333C15.3991 9.90378 15.041 9.55556 14.5992 9.55556Z" stroke="white" stroke-width="2" stroke-linecap="round" stroke-linejoin="round"/>
</svg>
