<svg width="28" height="25" viewBox="0 0 28 25" fill="none" xmlns="http://www.w3.org/2000/svg">
<path d="M18.7755 25C21.3196 25 23.4937 24.1256 25.2978 22.3769C27.1018 20.6282 28.0026 18.5071 28 16.0135C27.9974 13.5199 27.0967 11.4045 25.2978 9.66731C23.4924 7.93141 21.3177 7.06346 18.7736 7.06346H3.72089L9.48691 1.36154L8.11053 0L-5.73664e-07 8.025L8.11248 16.05L9.48885 14.6904L3.72284 8.98654H18.7755C20.7921 8.98654 22.5094 9.66474 23.9272 11.0212C25.3477 12.3776 26.0579 14.0417 26.0579 16.0135C26.0579 17.9853 25.3483 19.6558 23.9292 21.025C22.5087 22.3929 20.7908 23.0769 18.7755 23.0769H4.67347V25H18.7755Z" fill="white"/>
</svg>
