<svg width="16" height="16" viewBox="0 0 16 16" fill="none" xmlns="http://www.w3.org/2000/svg">
<path d="M4.27983 5.22001C4.42028 5.36064 4.49917 5.55126 4.49917 5.75001C4.49917 5.94876 4.42028 6.13939 4.27983 6.28001L3.55983 7.00001H6.24983C6.44874 7.00001 6.63951 7.07903 6.78016 7.21968C6.92081 7.36033 6.99983 7.5511 6.99983 7.75001C6.99983 7.94892 6.92081 8.13969 6.78016 8.28034C6.63951 8.42099 6.44874 8.50001 6.24983 8.50001H3.55983L4.27983 9.22001C4.35352 9.28867 4.41262 9.37147 4.45361 9.46347C4.4946 9.55547 4.51664 9.65479 4.51842 9.75549C4.5202 9.85619 4.50167 9.95622 4.46395 10.0496C4.42623 10.143 4.37009 10.2278 4.29887 10.299C4.22765 10.3703 4.14281 10.4264 4.04943 10.4641C3.95604 10.5019 3.85601 10.5204 3.75531 10.5186C3.6546 10.5168 3.55529 10.4948 3.46329 10.4538C3.37129 10.4128 3.28849 10.3537 3.21983 10.28L1.21983 8.28001C1.07938 8.13939 1.00049 7.94876 1.00049 7.75001C1.00049 7.55126 1.07938 7.36064 1.21983 7.22001L3.21983 5.22001C3.36045 5.07956 3.55108 5.00067 3.74983 5.00067C3.94858 5.00067 4.1392 5.07956 4.27983 5.22001ZM11.7198 5.22001C11.8605 5.07956 12.0511 5.00067 12.2498 5.00067C12.4486 5.00067 12.6392 5.07956 12.7798 5.22001L14.7798 7.22001C14.9203 7.36064 14.9992 7.55126 14.9992 7.75001C14.9992 7.94876 14.9203 8.13939 14.7798 8.28001L12.7798 10.28C12.7112 10.3537 12.6284 10.4128 12.5364 10.4538C12.4444 10.4948 12.3451 10.5168 12.2444 10.5186C12.1436 10.5204 12.0436 10.5019 11.9502 10.4641C11.8568 10.4264 11.772 10.3703 11.7008 10.299C11.6296 10.2278 11.5734 10.143 11.5357 10.0496C11.498 9.95622 11.4795 9.85619 11.4812 9.75549C11.483 9.65479 11.5051 9.55547 11.546 9.46347C11.587 9.37147 11.6461 9.28867 11.7198 9.22001L12.4398 8.50001H9.74983C9.55092 8.50001 9.36015 8.42099 9.2195 8.28034C9.07885 8.13969 8.99983 7.94892 8.99983 7.75001C8.99983 7.5511 9.07885 7.36033 9.2195 7.21968C9.36015 7.07903 9.55092 7.00001 9.74983 7.00001H12.4398L11.7198 6.28001C11.5794 6.13939 11.5005 5.94876 11.5005 5.75001C11.5005 5.55126 11.5794 5.36064 11.7198 5.22001Z" fill="white"/>
</svg>
