<svg width="14" height="16" viewBox="0 0 14 16" fill="none" xmlns="http://www.w3.org/2000/svg">
<path d="M1 4C1 2.5855 1 1.879 1.4395 1.4395C1.879 1 2.5855 1 4 1H10C11.4145 1 12.121 1 12.5605 1.4395C13 1.879 13 2.5855 13 4V10C13 12.121 13 13.1823 12.3408 13.8408C11.6823 14.5 10.621 14.5 8.5 14.5H5.5C3.379 14.5 2.31775 14.5 1.65925 13.8408C1 13.1823 1 12.121 1 10V4Z" stroke="white" stroke-width="2"/>
<path d="M9.25 12.2501V14.5001M4.75 12.2501V14.5001M4.75 4.75006H9.25M4.75 7.75006H9.25" stroke="white" stroke-width="2" stroke-linecap="round"/>
</svg>
