<svg width="21" height="21" viewBox="0 0 21 21" fill="none" xmlns="http://www.w3.org/2000/svg">
<path d="M4.375 2.625H15.75C16.4462 2.625 17.1139 2.90156 17.6062 3.39384C18.0984 3.88613 18.375 4.55381 18.375 5.25V16.625C18.375 17.3212 18.0984 17.9889 17.6062 18.4812C17.1139 18.9734 16.4462 19.25 15.75 19.25H4.375C3.67881 19.25 3.01113 18.9734 2.51884 18.4812C2.02656 17.9889 1.75 17.3212 1.75 16.625V5.25C1.75 4.55381 2.02656 3.88613 2.51884 3.39384C3.01113 2.90156 3.67881 2.625 4.375 2.625ZM4.375 3.5C3.91087 3.5 3.46575 3.68437 3.13756 4.01256C2.80937 4.34075 2.625 4.78587 2.625 5.25V7.875H7V3.5H4.375ZM2.625 16.625C2.625 17.0891 2.80937 17.5342 3.13756 17.8624C3.46575 18.1906 3.91087 18.375 4.375 18.375H7V14H2.625V16.625ZM7 8.75H2.625V13.125H7V8.75ZM15.75 18.375C16.2141 18.375 16.6592 18.1906 16.9874 17.8624C17.3156 17.5342 17.5 17.0891 17.5 16.625V14H13.125V18.375H15.75ZM17.5 8.75H13.125V13.125H17.5V8.75ZM17.5 5.25C17.5 4.78587 17.3156 4.34075 16.9874 4.01256C16.6592 3.68437 16.2141 3.5 15.75 3.5H13.125V7.875H17.5V5.25ZM7.875 3.5V7.875H12.25V3.5H7.875ZM7.875 18.375H12.25V14H7.875V18.375ZM12.25 8.75H7.875V13.125H12.25V8.75Z" fill="white"/>
</svg>
