<svg width="17" height="15" viewBox="0 0 17 15" fill="none" xmlns="http://www.w3.org/2000/svg">
<path d="M8.15065 0L0 7.5H2.4452V14.1667H6.52052V9.16667H9.78079V10.0917L14.2066 5.56667L8.15065 0ZM15.5188 6.78333C15.4006 6.78701 15.2877 6.83438 15.201 6.91667L14.3859 7.75L16.0568 9.45833L16.8719 8.625C16.954 8.53932 17 8.42414 17 8.30417C17 8.1842 16.954 8.06901 16.8719 7.98333L15.8286 6.91667C15.7471 6.83333 15.633 6.78333 15.5188 6.78333ZM13.905 8.23333L8.96572 13.2833V15H10.6448L15.5759 9.94167L13.905 8.23333Z" fill="white"/>
</svg>
