<svg width="16" height="16" viewBox="0 0 16 16" fill="none" xmlns="http://www.w3.org/2000/svg">
<path d="M2.83312 1.73533C3.40505 1.40513 4.06995 1.27287 4.72471 1.35908C5.37946 1.44528 5.98748 1.74512 6.45445 2.2121C6.92143 2.67908 7.22126 3.2871 7.30746 3.94186C7.39365 4.59662 7.26139 5.26152 6.93118 5.83344C6.60097 6.40537 6.09126 6.85235 5.48112 7.10507C4.87099 7.35778 4.19451 7.40211 3.55661 7.23117C2.91871 7.06023 2.35504 6.68358 1.95302 6.15964C1.551 5.6357 1.3331 4.99374 1.33312 4.33333L1.33712 4.18067C1.3626 3.6806 1.51284 3.19487 1.77414 2.76775C2.03545 2.34063 2.3995 1.98571 2.83312 1.73533ZM3.75445 9.00267C3.81278 8.9007 3.89702 8.81596 3.99864 8.75702C4.10026 8.69808 4.21565 8.66704 4.33312 8.66704C4.45059 8.66704 4.56598 8.69808 4.6676 8.75702C4.76921 8.81596 4.85345 8.9007 4.91179 9.00267L7.57845 13.6693C7.63636 13.7707 7.66663 13.8855 7.66623 14.0023C7.66584 14.119 7.63479 14.2336 7.5762 14.3346C7.51761 14.4355 7.43354 14.5194 7.33238 14.5777C7.23122 14.6359 7.11653 14.6666 6.99979 14.6667H1.66645C1.54971 14.6666 1.43502 14.6359 1.33386 14.5777C1.2327 14.5194 1.14862 14.4355 1.09003 14.3346C1.03144 14.2336 1.0004 14.119 1 14.0023C0.999609 13.8855 1.02988 13.7707 1.08778 13.6693L3.75445 9.00267ZM8.86179 1.52867C8.9868 1.40369 9.15634 1.33348 9.33312 1.33348C9.50989 1.33348 9.67943 1.40369 9.80445 1.52867L14.4711 6.19533C14.5348 6.25683 14.5856 6.33039 14.6205 6.41173C14.6555 6.49307 14.6739 6.58055 14.6746 6.66906C14.6754 6.75758 14.6585 6.84537 14.625 6.9273C14.5915 7.00923 14.542 7.08367 14.4794 7.14626C14.4168 7.20886 14.3424 7.25836 14.2604 7.29188C14.1785 7.3254 14.0907 7.34227 14.0022 7.3415C13.9137 7.34073 13.8262 7.32234 13.7448 7.2874C13.6635 7.25246 13.5899 7.20167 13.5285 7.138L8.86179 2.47133C8.7368 2.34631 8.66659 2.17678 8.66659 2C8.66659 1.82322 8.7368 1.65368 8.86179 1.52867Z" fill="white"/>
<path d="M13.5285 1.52866C13.6542 1.40722 13.8226 1.34003 13.9974 1.34155C14.1722 1.34307 14.3394 1.41318 14.463 1.53678C14.5867 1.66039 14.6568 1.8276 14.6583 2.0024C14.6598 2.17719 14.5926 2.3456 14.4712 2.47133L9.8045 7.138C9.67877 7.25944 9.51037 7.32663 9.33557 7.32511C9.16077 7.32359 8.99356 7.25348 8.86996 7.12988C8.74635 7.00627 8.67624 6.83906 8.67472 6.66426C8.6732 6.48947 8.7404 6.32107 8.86184 6.19533L13.5285 1.52866ZM13.9998 8.66666C14.1766 8.66666 14.3462 8.7369 14.4712 8.86193C14.5963 8.98695 14.6665 9.15652 14.6665 9.33333V14C14.6665 14.1768 14.5963 14.3464 14.4712 14.4714C14.3462 14.5964 14.1766 14.6667 13.9998 14.6667H9.33317C9.15636 14.6667 8.98679 14.5964 8.86177 14.4714C8.73674 14.3464 8.6665 14.1768 8.6665 14V9.33333C8.6665 9.15652 8.73674 8.98695 8.86177 8.86193C8.98679 8.7369 9.15636 8.66666 9.33317 8.66666H13.9998Z" fill="white"/>
</svg>
