<svg width="16" height="16" viewBox="0 0 16 16" fill="none" xmlns="http://www.w3.org/2000/svg">
<path d="M13.9998 2.00665H1.99984C1.2665 2.00665 0.666504 2.60665 0.666504 3.33999V5.33332C0.666504 5.69999 0.966504 5.99999 1.33317 5.99999C1.69984 5.99999 1.99984 5.69999 1.99984 5.33332V3.99332C1.99984 3.62665 2.29984 3.32665 2.6665 3.32665H13.3332C13.6998 3.32665 13.9998 3.62665 13.9998 3.99332V12.0133C13.9998 12.38 13.6998 12.68 13.3332 12.68H2.6665C2.29984 12.68 1.99984 12.38 1.99984 12.0133V10.6667C1.99984 10.3 1.69984 9.99999 1.33317 9.99999C0.966504 9.99999 0.666504 10.3 0.666504 10.6667V12.6733C0.666504 13.4 1.25984 13.9933 1.9865 13.9933H13.9998C14.7332 13.9933 15.3332 13.3933 15.3332 12.66V3.33999C15.3332 2.60665 14.7332 2.00665 13.9998 2.00665ZM7.89984 10.1L9.75984 8.23999C9.89317 8.10665 9.89317 7.89999 9.75984 7.76665L7.89984 5.90665C7.85387 5.85934 7.79479 5.8269 7.7302 5.81349C7.66562 5.80009 7.5985 5.80635 7.53751 5.83147C7.47651 5.85658 7.42445 5.8994 7.38802 5.95439C7.3516 6.00938 7.3325 6.07403 7.33317 6.13999V7.33332H1.33317C0.966504 7.33332 0.666504 7.63332 0.666504 7.99999C0.666504 8.36665 0.966504 8.66665 1.33317 8.66665H7.33317V9.85999C7.33317 10.16 7.69317 10.3067 7.89984 10.1Z" fill="white"/>
</svg>
