<svg width="16" height="16" viewBox="0 0 16 16" fill="none" xmlns="http://www.w3.org/2000/svg">
<path d="M6.5625 6.78125C6.5625 7.03979 6.51158 7.2958 6.41264 7.53466C6.3137 7.77352 6.16868 7.99055 5.98587 8.17337C5.80305 8.35618 5.58602 8.5012 5.34716 8.60014C5.1083 8.69908 4.85229 8.75 4.59375 8.75C4.33521 8.75 4.0792 8.69908 3.84034 8.60014C3.60148 8.5012 3.38445 8.35618 3.20163 8.17337C3.01882 7.99055 2.8738 7.77352 2.77486 7.53466C2.67592 7.2958 2.625 7.03979 2.625 6.78125C2.625 6.25911 2.83242 5.75835 3.20163 5.38913C3.57085 5.01992 4.07161 4.8125 4.59375 4.8125C5.11589 4.8125 5.61665 5.01992 5.98587 5.38913C6.35508 5.75835 6.5625 6.25911 6.5625 6.78125ZM5.46875 6.78125C5.46875 6.54919 5.37656 6.32663 5.21247 6.16253C5.04837 5.99844 4.82581 5.90625 4.59375 5.90625C4.36169 5.90625 4.13913 5.99844 3.97503 6.16253C3.81094 6.32663 3.71875 6.54919 3.71875 6.78125C3.71875 7.01331 3.81094 7.23587 3.97503 7.39997C4.13913 7.56406 4.36169 7.65625 4.59375 7.65625C4.82581 7.65625 5.04837 7.56406 5.21247 7.39997C5.37656 7.23587 5.46875 7.01331 5.46875 6.78125ZM4.59375 13.5625C5.11589 13.5625 5.61665 13.3551 5.98587 12.9859C6.35508 12.6167 6.5625 12.1159 6.5625 11.5938C6.5625 11.0716 6.35508 10.5708 5.98587 10.2016C5.61665 9.83242 5.11589 9.625 4.59375 9.625C4.07161 9.625 3.57085 9.83242 3.20163 10.2016C2.83242 10.5708 2.625 11.0716 2.625 11.5938C2.625 12.1159 2.83242 12.6167 3.20163 12.9859C3.57085 13.3551 4.07161 13.5625 4.59375 13.5625ZM4.59375 12.4688C4.36169 12.4688 4.13913 12.3766 3.97503 12.2125C3.81094 12.0484 3.71875 11.8258 3.71875 11.5938C3.71875 11.3617 3.81094 11.1391 3.97503 10.975C4.13913 10.8109 4.36169 10.7188 4.59375 10.7188C4.82581 10.7188 5.04837 10.8109 5.21247 10.975C5.37656 11.1391 5.46875 11.3617 5.46875 11.5938C5.46875 11.8258 5.37656 12.0484 5.21247 12.2125C5.04837 12.3766 4.82581 12.4688 4.59375 12.4688ZM3.17188 2.625C3.02683 2.625 2.88773 2.68262 2.78518 2.78518C2.68262 2.88773 2.625 3.02683 2.625 3.17188C2.625 3.31692 2.68262 3.45602 2.78518 3.55857C2.88773 3.66113 3.02683 3.71875 3.17188 3.71875H12.5781C12.7232 3.71875 12.8623 3.66113 12.9648 3.55857C13.0674 3.45602 13.125 3.31692 13.125 3.17188C13.125 3.02683 13.0674 2.88773 12.9648 2.78518C12.8623 2.68262 12.7232 2.625 12.5781 2.625H3.17188ZM7.4375 6.89062C7.4375 6.58875 7.6825 6.34375 7.98438 6.34375H12.5781C12.7232 6.34375 12.8623 6.40137 12.9648 6.50393C13.0674 6.60648 13.125 6.74558 13.125 6.89062C13.125 7.03567 13.0674 7.17477 12.9648 7.27732C12.8623 7.37988 12.7232 7.4375 12.5781 7.4375H7.98438C7.6825 7.4375 7.4375 7.1925 7.4375 6.89062ZM7.98438 10.9375C7.83933 10.9375 7.70023 10.9951 7.59768 11.0977C7.49512 11.2002 7.4375 11.3393 7.4375 11.4844C7.4375 11.6294 7.49512 11.7685 7.59768 11.8711C7.70023 11.9736 7.83933 12.0312 7.98438 12.0312H12.5781C12.7232 12.0312 12.8623 11.9736 12.9648 11.8711C13.0674 11.7685 13.125 11.6294 13.125 11.4844C13.125 11.3393 13.0674 11.2002 12.9648 11.0977C12.8623 10.9951 12.7232 10.9375 12.5781 10.9375H7.98438ZM2.73438 0C2.00917 0 1.31367 0.288085 0.80088 0.80088C0.288085 1.31367 0 2.00917 0 2.73438V13.0156C0 13.7408 0.288085 14.4363 0.80088 14.9491C1.31367 15.4619 2.00917 15.75 2.73438 15.75H13.0156C13.7408 15.75 14.4363 15.4619 14.9491 14.9491C15.4619 14.4363 15.75 13.7408 15.75 13.0156V2.73438C15.75 2.00917 15.4619 1.31367 14.9491 0.80088C14.4363 0.288085 13.7408 0 13.0156 0H2.73438ZM1.09375 2.73438C1.09375 2.29925 1.2666 1.88195 1.57428 1.57428C1.88195 1.2666 2.29925 1.09375 2.73438 1.09375H13.0156C13.4507 1.09375 13.868 1.2666 14.1757 1.57428C14.4834 1.88195 14.6562 2.29925 14.6562 2.73438V13.0156C14.6562 13.4507 14.4834 13.868 14.1757 14.1757C13.868 14.4834 13.4507 14.6562 13.0156 14.6562H2.73438C2.29925 14.6562 1.88195 14.4834 1.57428 14.1757C1.2666 13.868 1.09375 13.4507 1.09375 13.0156V2.73438Z" fill="white"/>
</svg>
