<svg width="17" height="17" viewBox="0 0 17 17" fill="none" xmlns="http://www.w3.org/2000/svg">
<path d="M2.125 11.1562V5.84373C2.125 5.46801 2.27426 5.10767 2.53993 4.84199C2.80561 4.57632 3.16594 4.42706 3.54167 4.42706H9.5625C9.93822 4.42706 10.2986 4.57632 10.5642 4.84199C10.8299 5.10767 10.9792 5.46801 10.9792 5.84373V11.1562C10.9792 11.532 10.8299 11.8923 10.5642 12.158C10.2986 12.4236 9.93822 12.5729 9.5625 12.5729H3.54167C3.16594 12.5729 2.80561 12.4236 2.53993 12.158C2.27426 11.8923 2.125 11.532 2.125 11.1562ZM14.2857 4.95194L11.4523 7.47573C11.415 7.50889 11.3851 7.54957 11.3646 7.59511C11.3441 7.64064 11.3334 7.69 11.3333 7.73994V8.99935C11.3334 9.04929 11.3441 9.09865 11.3646 9.14419C11.3851 9.18972 11.415 9.2304 11.4523 9.26356L14.2857 11.7874C14.3367 11.8327 14.3998 11.8623 14.4673 11.8726C14.5347 11.883 14.6038 11.8736 14.666 11.8456C14.7283 11.8176 14.7812 11.7722 14.8182 11.7149C14.8553 11.6575 14.875 11.5907 14.875 11.5224V5.21685C14.875 5.14858 14.8553 5.08176 14.8182 5.02444C14.7812 4.96711 14.7283 4.92172 14.666 4.89373C14.6038 4.86574 14.5347 4.85634 14.4673 4.86667C14.3998 4.877 14.3367 4.90661 14.2857 4.95194Z" stroke="white" stroke-width="1.5" stroke-linecap="round" stroke-linejoin="round"/>
</svg>
